<svg width="640" height="360" viewBox="0 0 640 360" fill="none" xmlns="http://www.w3.org/2000/svg">
  <defs>
    <linearGradient id="paint0" x1="93" y1="60" x2="530" y2="312" gradientUnits="userSpaceOnUse">
      <stop stop-color="#FF5B3D"/>
      <stop offset="0.5" stop-color="#FFB15C"/>
      <stop offset="1" stop-color="#72E8FF"/>
    </linearGradient>
    <linearGradient id="paint1" x1="210" y1="82" x2="441" y2="255" gradientUnits="userSpaceOnUse">
      <stop stop-color="#FFFFFF" stop-opacity="0.98"/>
      <stop offset="1" stop-color="#D4F7FF" stop-opacity="0.12"/>
    </linearGradient>
  </defs>
  <rect x="20" y="20" width="600" height="320" rx="48" fill="#081421" stroke="rgba(255,255,255,0.10)"/>
  <path d="M124 212C166 167 220 139 300 128H423L486 97H552L502 145L532 172L450 184L386 243H237C188 243 156 233 124 212Z" fill="url(#paint0)" opacity="0.88"/>
  <path d="M128 213C172 189 226 180 296 180H364L422 130H490L430 190H356L311 226H192C164 226 146 221 128 213Z" fill="url(#paint1)"/>
  <circle cx="212" cy="252" r="38" fill="#06101A" stroke="#FFE66D" stroke-width="14"/>
  <circle cx="212" cy="252" r="14" fill="#FFE66D"/>
  <circle cx="420" cy="252" r="38" fill="#06101A" stroke="#72E8FF" stroke-width="14"/>
  <circle cx="420" cy="252" r="14" fill="#72E8FF"/>
  <path d="M132 122L286 74H374L312 120H132V122Z" fill="#FF5B3D" opacity="0.7"/>
  <path d="M93 107H191L154 142H93V107Z" fill="#FFE66D" opacity="0.65"/>
  <path d="M472 116H565L546 147H442L472 116Z" fill="#72E8FF" opacity="0.52"/>
</svg>
